<svg width="116" height="36" fill="none" xmlns="http://www.w3.org/2000/svg"><path d="M19.961 1.005c-.476.278-1.436 1.058-2.141 1.74a14.963 14.963 0 00-2.873 3.9l-.415.787c-.014.014-.166-.25-.338-.592-1.057-2.047-3.074-3.753-5.326-4.505a9.248 9.248 0 00-2.355-.439c-.642-.035-.718-.028-.974.118a1.2 1.2 0 00-.435.44c-.145.257-.152.333-.11.967.055.843.193 1.56.455 2.368.228.675.656 1.587.76 1.587.035 0 .27-.055.532-.118.325-.084.774-.118 1.471-.118 1.589-.007 2.46.236 4.593 1.267 1.596.766 1.603.766 2.805.181l.87-.425.36-.682a12.842 12.842 0 013.867-4.457c.615-.446.836-.752.836-1.163 0-.522-.511-1.03-1.036-1.03-.131 0-.38.076-.546.174z" fill="#fff"/><path d="M7.52 9.069c-.964.153-2.285.7-3.263 1.349-.716.48-1.741 1.496-2.257 2.244-2.774 4.007-2.65 10.512.296 16.149.88 1.676 1.837 2.972 3.035 4.1 1.5 1.403 3.008 2.138 4.605 2.245 1.115.066 1.947-.14 3.372-.849 1.129-.56 1.26-.554 2.547.06 1.459.695 2.133.855 3.235.789 1.576-.1 3.09-.835 4.556-2.211 2.67-2.491 4.563-6.398 5.224-10.76.172-1.108.172-3.499.007-4.594-.406-2.665-1.37-4.682-2.973-6.225-1.756-1.69-4.082-2.585-6.023-2.31-.867.126-1.363.293-2.822.974-2.32 1.082-2.698 1.089-4.893.067-.661-.314-1.439-.641-1.721-.735-.984-.327-2.058-.434-2.925-.293zm37.003 4.844c1.327 0 2.41.428 3.248 1.284.84.855 1.259 1.963 1.259 3.324 0 1.36-.423 2.471-1.268 3.334-.846.862-1.932 1.294-3.258 1.294h-3.54v5.125h-1.756V13.913h5.315zm-3.56 7.643h3.102c1.001 0 1.778-.268 2.331-.806.553-.53.83-1.274.83-2.23 0-.955-.274-1.695-.82-2.219-.553-.53-1.333-.796-2.341-.796h-3.102v6.051zm9.871-4.011h1.6v1.742h.039a2.388 2.388 0 01.926-1.344c.462-.331 1.002-.497 1.62-.497.266 0 .484.023.653.07v1.711c-.182-.08-.475-.12-.878-.12-.683 0-1.229.233-1.639.698-.416.464-.624 1.074-.624 1.83v6.64h-1.697v-10.73zm10.183 10.829c-1.476 0-2.653-.495-3.53-1.483-.879-.989-1.318-2.316-1.318-3.981 0-1.666.44-2.993 1.317-3.981.878-.989 2.055-1.483 3.53-1.483 1.477 0 2.654.494 3.532 1.483.878.988 1.317 2.315 1.317 3.98 0 1.666-.44 2.993-1.317 3.982-.878.988-2.055 1.483-3.531 1.483zm0-1.543c.982 0 1.746-.345 2.292-1.035.553-.697.83-1.659.83-2.886 0-1.234-.277-2.196-.83-2.887-.546-.69-1.31-1.035-2.292-1.035-.982 0-1.746.346-2.292 1.035-.553.697-.83 1.66-.83 2.887s.277 2.19.83 2.886c.553.69 1.316 1.035 2.292 1.035zm14.387-2.667h-5.599l-1.414 4.11h-1.844l5.19-14.361h1.736l5.189 14.361h-1.844l-1.414-4.11zm-5.082-1.523h4.565l-2.253-6.549h-.059l-2.253 6.549zm14.787-5.195c1.346 0 2.432.5 3.258 1.503.832 1.008 1.248 2.328 1.248 3.96 0 1.633-.413 2.953-1.239 3.962-.826 1.002-1.902 1.503-3.228 1.503-1.541 0-2.66-.614-3.356-1.841h-.039v5.324h-1.697V17.545h1.61v1.742h.039c.305-.557.767-1.005 1.385-1.344a4.2 4.2 0 012.019-.497zm-.312 9.385c.93 0 1.674-.355 2.233-1.065.566-.716.849-1.669.849-2.856 0-1.181-.283-2.13-.849-2.847-.559-.716-1.304-1.075-2.233-1.075-.904 0-1.639.362-2.205 1.085-.566.724-.848 1.669-.848 2.837 0 1.168.282 2.113.848 2.836.56.723 1.294 1.085 2.205 1.085zm11.665-9.385c1.346 0 2.432.5 3.258 1.503.832 1.008 1.248 2.328 1.248 3.96 0 1.633-.413 2.953-1.238 3.962-.826 1.002-1.902 1.503-3.229 1.503-1.541 0-2.66-.614-3.355-1.841h-.04v5.324H91.41V17.545h1.609v1.742h.039c.306-.557.767-1.005 1.385-1.344a4.2 4.2 0 012.02-.497zm-.312 9.385c.93 0 1.674-.355 2.234-1.065.565-.716.848-1.669.848-2.856 0-1.181-.283-2.13-.848-2.847-.56-.716-1.304-1.075-2.234-1.075-.904 0-1.639.362-2.204 1.085-.566.724-.849 1.669-.849 2.837 0 1.168.283 2.113.849 2.836.559.723 1.294 1.085 2.204 1.085zm6.711-13.545h1.697v14.988h-1.697V13.286zm8.29 5.682c-.826 0-1.508.28-2.048.837-.546.557-.849 1.29-.907 2.2h5.784c-.02-.91-.29-1.643-.81-2.2-.513-.558-1.186-.837-2.019-.837zm4.467 6.24c-.143.923-.624 1.68-1.443 2.27-.819.597-1.792.896-2.916.896-1.477 0-2.65-.488-3.522-1.463-.864-.976-1.297-2.296-1.297-3.961 0-1.666.433-3 1.297-4.001.865-1.002 2.013-1.503 3.444-1.503 1.404 0 2.516.47 3.335 1.413.82.949 1.229 2.233 1.229 3.852v.677h-7.549v.099c0 1.022.283 1.838.848 2.448.566.61 1.317.916 2.254.916.656 0 1.225-.15 1.706-.448.475-.292.787-.69.937-1.194h1.677z" fill="#fff"/></svg>