<svg width="90" height="90" viewBox="0 0 90 90" fill="none" xmlns="http://www.w3.org/2000/svg">
<g filter="url(#filter0_b_32_122)">
<circle cx="45" cy="45" r="45" transform="rotate(-180 45 45)" fill="white" fill-opacity="0.6"/>
<circle cx="45" cy="45" r="44.5" transform="rotate(-180 45 45)" stroke="#7883E6"/>
</g>
<path d="M28.2929 44.2929C27.9024 44.6834 27.9024 45.3166 28.2929 45.7071L34.6569 52.0711C35.0474 52.4616 35.6805 52.4616 36.0711 52.0711C36.4616 51.6805 36.4616 51.0474 36.0711 50.6569L30.4142 45L36.0711 39.3431C36.4616 38.9526 36.4616 38.3195 36.0711 37.9289C35.6805 37.5384 35.0474 37.5384 34.6569 37.9289L28.2929 44.2929ZM61 44H29V46H61V44Z" fill="#7883E6"/>
<defs>
<filter id="filter0_b_32_122" x="-10" y="-10" width="110" height="110" filterUnits="userSpaceOnUse" color-interpolation-filters="sRGB">
<feFlood flood-opacity="0" result="BackgroundImageFix"/>
<feGaussianBlur in="BackgroundImage" stdDeviation="5"/>
<feComposite in2="SourceAlpha" operator="in" result="effect1_backgroundBlur_32_122"/>
<feBlend mode="normal" in="SourceGraphic" in2="effect1_backgroundBlur_32_122" result="shape"/>
</filter>
</defs>
</svg>
