<svg width="116" height="36" viewBox="0 0 116 36" fill="none" xmlns="http://www.w3.org/2000/svg">
<path d="M19.9611 1.00461C19.4845 1.28316 18.5245 2.0631 17.8199 2.74554C16.6734 3.85974 15.7064 5.16892 14.9466 6.64523C14.7256 7.06305 14.5391 7.4182 14.5322 7.43213C14.5183 7.44606 14.3664 7.18143 14.1937 6.84021C13.1369 4.79288 11.12 3.08677 8.86833 2.33468C8.13617 2.09095 7.36949 1.95168 6.513 1.89597C5.87064 1.86115 5.79467 1.86811 5.5391 2.01435C5.37333 2.10488 5.19375 2.28594 5.10396 2.45307C4.95891 2.71072 4.952 2.78733 4.99344 3.42102C5.0487 4.26363 5.18684 4.9809 5.44931 5.78869C5.67724 6.46417 6.10549 7.37642 6.20909 7.37642C6.24363 7.37642 6.47847 7.32071 6.74094 7.25803C7.06557 7.17447 7.51453 7.13965 8.21215 7.13965C9.80079 7.13269 10.6711 7.37642 12.8054 8.40705C14.4009 9.17306 14.4078 9.17306 15.6097 8.58811L16.48 8.16332L16.8391 7.48087C17.7923 5.68423 19.0908 4.18703 20.7071 3.02409C21.3218 2.57841 21.5429 2.27201 21.5429 1.86115C21.5429 1.33887 21.0317 0.83052 20.5068 0.83052C20.3756 0.83052 20.1269 0.907121 19.9611 1.00461Z" fill="white"/>
<path d="M7.51973 9.06861C6.55614 9.22222 5.23465 9.76987 4.2573 10.4177C3.54149 10.8986 2.51596 11.9137 1.99975 12.6618C-0.774003 16.669 -0.650114 23.1741 2.29571 28.8109C3.1767 30.4873 4.13341 31.7829 5.33101 32.9116C6.83145 34.3142 8.33878 35.0488 9.93558 35.1557C11.0506 35.2225 11.8834 35.0154 13.3081 34.3075C14.4369 33.7465 14.5677 33.7531 15.8548 34.3676C17.3139 35.0622 17.9884 35.2225 19.0897 35.1557C20.6658 35.0555 22.18 34.3208 23.6461 32.945C26.3166 30.4539 28.2093 26.5468 28.8701 22.1856C29.0421 21.0769 29.0421 18.686 28.877 17.5907C28.4709 14.9258 27.5073 12.9089 25.9036 11.3661C24.1485 9.67637 21.8221 8.78142 19.8812 9.05525C19.014 9.18214 18.5184 9.34911 17.0592 10.0303C14.7398 11.1123 14.3612 11.119 12.1656 10.0971C11.5049 9.78323 10.7271 9.45597 10.4449 9.36247C9.46067 9.03521 8.38696 8.92835 7.51973 9.06861Z" fill="white"/>
<path d="M44.5233 13.9127C45.8498 13.9127 46.9325 14.3406 47.7713 15.1965C48.6101 16.0524 49.0296 17.1605 49.0296 18.5207C49.0296 19.8809 48.6069 20.9922 47.7616 21.8548C46.9162 22.7173 45.8303 23.1486 44.5038 23.1486H40.9632V28.2742H39.2075V13.9127H44.5233ZM40.9632 21.5562H44.0649C45.0663 21.5562 45.8433 21.2875 46.396 20.75C46.9488 20.2192 47.2251 19.4761 47.2251 18.5207C47.2251 17.5652 46.952 16.8254 46.4058 16.3013C45.8531 15.7705 45.0728 15.5051 44.0649 15.5051H40.9632V21.5562Z" fill="white"/>
<path d="M50.834 17.5453H52.4336V19.287H52.4726C52.6287 18.723 52.9376 18.2752 53.3992 17.9434C53.8609 17.6117 54.4006 17.4458 55.0184 17.4458C55.285 17.4458 55.5028 17.469 55.6719 17.5155V19.2273C55.4898 19.1477 55.1972 19.1079 54.794 19.1079C54.1113 19.1079 53.5651 19.3401 53.1554 19.8046C52.7392 20.269 52.5312 20.8794 52.5312 21.6358V28.2742H50.834V17.5453Z" fill="white"/>
<path d="M61.0169 28.3737C59.5409 28.3737 58.3639 27.8794 57.4861 26.8908C56.6082 25.9021 56.1693 24.5751 56.1693 22.9097C56.1693 21.2444 56.6082 19.9173 57.4861 18.9287C58.3639 17.9401 59.5409 17.4458 61.0169 17.4458C62.493 17.4458 63.6699 17.9401 64.5478 18.9287C65.4256 19.9173 65.8645 21.2444 65.8645 22.9097C65.8645 24.5751 65.4256 25.9021 64.5478 26.8908C63.6699 27.8794 62.493 28.3737 61.0169 28.3737ZM61.0169 26.831C61.9988 26.831 62.7628 26.486 63.3091 25.796C63.8618 25.0993 64.1381 24.1372 64.1381 22.9097C64.1381 21.6756 63.8618 20.7136 63.3091 20.0235C62.7628 19.3335 61.9988 18.9884 61.0169 18.9884C60.035 18.9884 59.271 19.3335 58.7248 20.0235C58.1721 20.7202 57.8957 21.6823 57.8957 22.9097C57.8957 24.1372 58.1721 25.0993 58.7248 25.796C59.2775 26.486 60.0415 26.831 61.0169 26.831Z" fill="white"/>
<path d="M75.4037 24.1638H69.8051L68.3908 28.2742H66.5473L71.7363 13.9127H73.4725L78.6615 28.2742H76.818L75.4037 24.1638ZM70.322 22.641H74.8868L72.6336 16.0923H72.5751L70.322 22.641Z" fill="white"/>
<path d="M85.1087 17.4458C86.4547 17.4458 87.5406 17.9467 88.3665 18.9486C89.1988 19.9572 89.6149 21.2775 89.6149 22.9097C89.6149 24.542 89.202 25.8623 88.3762 26.8709C87.5504 27.8727 86.4742 28.3737 85.1477 28.3737C83.6066 28.3737 82.4882 27.7599 81.7924 26.5325H81.7534V31.8571H80.0563V17.5453H81.6656V19.287H81.7046C82.0103 18.7297 82.4719 18.2818 83.0897 17.9434C83.7074 17.6117 84.3804 17.4458 85.1087 17.4458ZM84.7966 26.831C85.7264 26.831 86.471 26.4761 87.0302 25.7661C87.5959 25.0495 87.8788 24.0974 87.8788 22.9097C87.8788 21.7287 87.5959 20.7799 87.0302 20.0633C86.471 19.3467 85.7264 18.9884 84.7966 18.9884C83.8927 18.9884 83.158 19.3501 82.5922 20.0733C82.0265 20.7965 81.7437 21.742 81.7437 22.9097C81.7437 24.0775 82.0265 25.023 82.5922 25.7462C83.1515 26.4694 83.8862 26.831 84.7966 26.831Z" fill="white"/>
<path d="M96.4621 17.4458C97.8081 17.4458 98.894 17.9467 99.7198 18.9486C100.552 19.9572 100.968 21.2775 100.968 22.9097C100.968 24.542 100.555 25.8623 99.7296 26.8709C98.9038 27.8727 97.8276 28.3737 96.5011 28.3737C94.96 28.3737 93.8416 27.7599 93.1458 26.5325H93.1068V31.8571H91.4096V17.5453H93.019V19.287H93.058C93.3636 18.7297 93.8253 18.2818 94.4431 17.9434C95.0608 17.6117 95.7338 17.4458 96.4621 17.4458ZM96.15 26.831C97.0798 26.831 97.8244 26.4761 98.3836 25.7661C98.9493 25.0495 99.2321 24.0974 99.2321 22.9097C99.2321 21.7287 98.9493 20.7799 98.3836 20.0633C97.8244 19.3467 97.0798 18.9884 96.15 18.9884C95.2461 18.9884 94.5113 19.3501 93.9456 20.0733C93.3799 20.7965 93.097 21.742 93.097 22.9097C93.097 24.0775 93.3799 25.023 93.9456 25.7462C94.5048 26.4694 95.2396 26.831 96.15 26.831Z" fill="white"/>
<path d="M102.861 13.2856H104.558V28.2742H102.861V13.2856Z" fill="white"/>
<path d="M111.151 18.9685C110.325 18.9685 109.643 19.2472 109.103 19.8046C108.557 20.3619 108.254 21.0951 108.196 22.0041H113.98C113.96 21.0951 113.69 20.3619 113.17 19.8046C112.657 19.2472 111.984 18.9685 111.151 18.9685ZM115.618 25.2088C115.475 26.131 114.994 26.8874 114.175 27.478C113.356 28.0751 112.383 28.3737 111.259 28.3737C109.782 28.3737 108.609 27.886 107.737 26.9107C106.873 25.9353 106.44 24.6149 106.44 22.9496C106.44 21.2842 106.873 19.9505 107.737 18.9486C108.602 17.9467 109.75 17.4458 111.181 17.4458C112.585 17.4458 113.697 17.9169 114.516 18.8591C115.336 19.8079 115.745 21.0917 115.745 22.7107V23.3875H108.196V23.487C108.196 24.5088 108.479 25.3249 109.044 25.9353C109.61 26.5457 110.361 26.8509 111.298 26.8509C111.954 26.8509 112.523 26.7017 113.004 26.4031C113.479 26.1111 113.791 25.713 113.941 25.2088H115.618Z" fill="white"/>
</svg>
